<svg class="icon" viewBox="0 0 1024 1024" version="1.1" xmlns="http://www.w3.org/2000/svg"
     width="300" height="300">
  <path
    d="M905.8304 507.392c-1.2288-6.3488-5.5296-12.5952-11.3664-16.5888l-429.9776-287.744c-4.608-2.7648-9.9328-4.3008-14.7456-4.3008-6.8608 0-13.824 2.9696-18.7392 7.8848-5.12 5.12-7.8848 11.6736-7.8848 18.7392v574.1568c0 5.632 1.536 10.752 4.4032 14.848 4.8128 7.3728 12.9024 11.776 21.8112 11.776 4.8128 0 9.5232-1.4336 14.4384-4.4032l430.7968-287.3344c3.1744-2.2528 5.7344-4.4032 7.3728-7.3728 3.8912-5.632 5.2224-12.5952 3.8912-19.6608z m-68.3008 1.8432L475.5456 750.592V274.5344l361.984 234.7008zM168.1408 254.1568c0-14.4384-11.776-26.2144-26.2144-26.2144-14.4384 0-26.2144 11.776-26.2144 26.2144v516.7104c0 14.4384 11.776 26.2144 26.2144 26.2144 7.2704 0 14.1312-2.8672 19.0464-7.9872 4.8128-4.9152 7.2704-11.4688 7.0656-18.2272V254.1568zM289.9968 299.7248c-14.4384 0-26.2144 11.776-26.2144 26.2144v373.248c0 14.4384 11.776 26.2144 26.2144 26.2144 14.4384 0 26.2144-11.776 26.2144-26.2144V325.9392c-0.1024-14.4384-11.776-26.2144-26.2144-26.2144z"
    fill="#ffffff"></path>
</svg>
