<svg class="icon" style="" viewBox="0 0 1024 1024" version="1.1" xmlns="http://www.w3.org/2000/svg"
     data-spm-anchor-id="a313x.7781069.0.i6" width="200"
     height="200">
  <path
    d="M794.67008 143.13472c0-43.15136-125.76256-78.24384-280.89344-78.24384-155.13088 0-280.88832 35.15136-280.88832 78.30016 0 0.31232 0.03328 1.10336 0.04096 1.10336h-0.04096v103.70816c0 38.52544 125.76256 69.75744 280.88832 69.75744 155.136 0 280.89088-31.232 280.89088-69.75744v-103.7056h-0.04352c0.0128 0 0.04352-0.85248 0.04352-1.16224h0.00256z m-498.304 100.9152a18.60096 18.60096 0 1 1 0-37.20448 18.60096 18.60096 0 0 1 0 37.20448z m58.67264 24.41728a18.60096 18.60096 0 1 1 0-37.20448 18.60096 18.60096 0 0 1 0 37.20448z m67.59424 14.25664a18.60096 18.60096 0 1 1 0-37.20448 18.60096 18.60096 0 0 1 0 37.20448z m372.03712 22.1184c0-10.8544-7.9616-21.17888-22.35648-30.55616 1.22368 2.5472 1.8688 5.33248 1.89696 8.15872 0 37.32992-116.5952 67.58656-260.4288 67.58656-143.82848 0-260.42112-30.25664-260.42112-67.584 0-2.8032 0.6656-5.56032 1.9456-8.27648-14.4256 9.37984-22.41024 19.712-22.41024 30.5792 0 0.3072 0.03072 0.63488 0.04352 0.63488h-0.04352v104.94976c0 38.528 125.75488 69.76 280.8832 69.76 155.136 0 280.89088-31.232 280.89088-69.76v-104.94464h-0.04096a2.22976 2.22976 0 0 0 0.04096-0.54528zM296.3712 406.38976a18.60096 18.60096 0 1 1 0-37.20448 18.60096 18.60096 0 0 1 0 37.20448z m58.67008 24.41472a18.60096 18.60096 0 1 1 0-37.20448 18.60096 18.60096 0 0 1 0 37.20448z m67.58912 14.26176a18.60096 18.60096 0 1 1 0-37.20448 18.60096 18.60096 0 0 1 0 37.20448z"
    data-spm-anchor-id="a313x.7781069.0.i7"></path>
  <path d="M486.72256 455.04h59.3024v148.25472h-59.3024z"  stroke-width="40"></path>
  <path d="M156.15232 547.47136h720.704v60.0576H156.15232z"  stroke-width="40"></path>
  <path d="M156.15232 547.47136h60.0576v180.17536h-60.0576zM816.79872 547.47136h60.0576v180.17536h-60.0576z"
         stroke-width="40"></path>
  <path
    d="M343.5776 855.3472H19.29472a18.04544 18.04544 0 0 0-18.0352 18.0352v66.69312c0 4.78208 1.92512 9.344 5.27872 12.75392a18.10688 18.10688 0 0 0 12.75648 5.27872H343.5776a18.20416 18.20416 0 0 0 12.75648-5.27872 18.10688 18.10688 0 0 0 5.27872-12.75392v-66.69312a18.20416 18.20416 0 0 0-5.27872-12.75648 18.20416 18.20416 0 0 0-12.75648-5.27872z m-27.05152 77.4144H259.7888v-52.06784h56.73984v52.0704z m27.05152-206.1824H19.29472a18.20416 18.20416 0 0 0-12.75648 5.27872 18.10688 18.10688 0 0 0-5.27872 12.75648v66.69312a18.04544 18.04544 0 0 0 18.0352 18.03264H343.5776a18.20416 18.20416 0 0 0 12.75648-5.27616 18.10688 18.10688 0 0 0 5.27872-12.75648v-66.69312a18.20416 18.20416 0 0 0-5.27872-12.75648 17.9712 17.9712 0 0 0-12.75648-5.27872z m-27.05152 77.19424H259.7888v-51.46112h56.73984v51.46112z"></path>
  <path
    d="M1004.224 855.3472H679.936a18.04544 18.04544 0 0 0-18.03264 18.0352v66.69312c0 4.78208 1.92256 9.344 5.27872 12.75392a18.10688 18.10688 0 0 0 12.75392 5.27872h324.28544a18.20416 18.20416 0 0 0 12.75392-5.27872 18.10688 18.10688 0 0 0 5.27872-12.75392v-66.69312a18.20416 18.20416 0 0 0-5.27872-12.75648 18.20416 18.20416 0 0 0-12.75392-5.27872z m-27.05152 77.4144h-56.7424v-52.06784h56.7424v52.0704z m27.05152-206.1824H679.936a18.20416 18.20416 0 0 0-12.75392 5.27872 18.10688 18.10688 0 0 0-5.27872 12.75648v66.69312a18.04544 18.04544 0 0 0 18.03264 18.03264h324.28544a18.20416 18.20416 0 0 0 12.75392-5.27616 18.10688 18.10688 0 0 0 5.27872-12.75648v-66.69312a18.20416 18.20416 0 0 0-5.27872-12.75648 17.9712 17.9712 0 0 0-12.75392-5.27872z m-27.05152 77.19424h-56.7424v-51.46112h56.7424v51.46112z"></path>
</svg>
