<svg class="icon" style="" viewBox="0 0 1024 1024" version="1.1" xmlns="http://www.w3.org/2000/svg"
     width="200" height="200">
  <path
    d="M105.569 460.8C128.673 275.522 275.522 128.673 460.8 105.569V51.2C460.8 22.923 483.723 0 512 0c28.277 0 51.2 22.923 51.2 51.2v54.369C748.478 128.673 895.327 275.522 918.431 460.8H972.8c28.277 0 51.2 22.923 51.2 51.2 0 28.277-22.923 51.2-51.2 51.2h-54.369C895.327 748.478 748.478 895.327 563.2 918.431V972.8c0 28.277-22.923 51.2-51.2 51.2-28.277 0-51.2-22.923-51.2-51.2v-54.369C275.522 895.327 128.673 748.478 105.569 563.2H51.2C22.923 563.2 0 540.277 0 512c0-28.277 22.923-51.2 51.2-51.2h54.369zM513.5 821C683.328 821 821 683.328 821 513.5S683.328 206 513.5 206 206 343.672 206 513.5 343.672 821 513.5 821z m-2-70C379.228 751 272 643.772 272 511.5S379.228 272 511.5 272 751 379.228 751 511.5 643.772 751 511.5 751z m3-65c94.717 0 171.5-76.783 171.5-171.5S609.217 343 514.5 343 343 419.783 343 514.5 419.783 686 514.5 686z m-2.5-71c-56.885 0-103-46.115-103-103s46.115-103 103-103 103 46.115 103 103-46.115 103-103 103z"
    stroke-width="40"></path>
</svg>
