<svg class="icon" style="" viewBox="0 0 2194 1024" version="1.1" xmlns="http://www.w3.org/2000/svg"
     width="200" height="200">
  <path
    d="M1184.841143 710.11961933h-217.6V362.03276233H1170.285714V260.51047633h-203.044571V57.46590433h-246.491429a471.771429 471.771429 0 0 0-471.405714 413.403429H0v101.522286l242.102857 7.241143c7.241143 108.763429 58.002286 203.044571 130.486857 275.529142 87.04 87.04 210.285714 137.801143 340.845715 137.801143h246.564571v-188.562285h217.526857l7.314286-94.281143z m-464.164572 174.08c-101.522286 0-195.803429-36.278857-261.046857-101.522286-65.243429-65.316571-108.763429-152.283429-101.522285-246.564571V521.63047633c0-188.562286 159.524571-348.16 362.569142-348.16h130.56v710.729143H720.676571z m1427.382858-297.325715V485.35161933l-165.522286-7.314286c-7.314286-108.763429-58.002286-202.971429-130.56-275.529143-87.04-87.04-210.285714-137.801143-340.845714-137.801143L1271.808 57.46590433v942.811429h232.082286a471.771429 471.771429 0 0 0 471.405714-413.403429h172.763429z m-644.169143 297.325715h-116.004572V173.47047633h116.004572c101.522286 0 195.803429 36.205714 261.12 101.522286 65.243429 65.243429 108.690286 152.283429 101.449143 246.491428v14.555429c7.314286 195.803429-159.451429 348.086857-362.569143 348.086857z"
    stroke-width="40"></path>
</svg>
