<svg class="icon" viewBox="0 0 1024 1024" version="1.1" xmlns="http://www.w3.org/2000/svg"
     width="200" height="200">
  <path
    d="M422.590108 0m89.043478 0l44.521739 0q89.043478 0 89.043478 89.043478l0 845.913044q0 89.043478-89.043478 89.043478l-44.521739 0q-89.043478 0-89.043478-89.043478l0-845.913044q0-89.043478 89.043478-89.043478Z"
    fill="#ffffff"></path>
  <path
    d="M21.894456 534.26087m89.043478 0l44.521739 0q89.043478 0 89.043478 89.043478l0 311.652174q0 89.043478-89.043478 89.043478l-44.521739 0q-89.043478 0-89.043478-89.043478l0-311.652174q0-89.043478 89.043478-89.043478Z"
    fill="#ffffff"></path>
  <path
    d="M778.764021 267.130435m89.043478 0l44.521739 0q89.043478 0 89.043479 89.043478l0 578.782609q0 89.043478-89.043479 89.043478l-44.521739 0q-89.043478 0-89.043478-89.043478l0-578.782609q0-89.043478 89.043478-89.043478Z"
    fill="#ffffff"></path>
</svg>
