<svg class="icon" viewBox="0 0 1024 1024" version="1.1" xmlns="http://www.w3.org/2000/svg"
     width="280" height="280">
  <path
    d="M512 967.111111A455.111111 455.111111 0 1 1 512 56.888889a455.111111 455.111111 0 0 1 0 910.222222zM419.555556 341.333333a35.555556 35.555556 0 0 0-35.555556 35.555556v270.222222a35.555556 35.555556 0 1 0 71.111111 0v-270.222222A35.555556 35.555556 0 0 0 419.555556 341.333333z m184.888888 0a35.555556 35.555556 0 0 0-35.555555 35.555556v270.222222a35.555556 35.555556 0 1 0 71.111111 0v-270.222222A35.555556 35.555556 0 0 0 604.444444 341.333333z"
    ></path>
</svg>
