<svg class="icon" viewBox="0 0 1059 1024" version="1.1" xmlns="http://www.w3.org/2000/svg"
     width="280" height="280">
  <path
    d="M949.58620683 539.93103418c18.62068974 3.10344786 34.13793076-12.41379317 43.44827608-31.03448204 0-58.96551709-12.41379317-114.82758633-37.24137949-167.58620771-24.82758633-52.7586205-58.96551709-99.31034443-99.31034444-136.55172392-43.44827607-37.24137949-93.10344785-68.2758624-145.86206924-90.00000001C595.79310342 71.31034443 468.55172393 71.31034443 353.7241376 114.7586205c-55.86206924 18.62068974-102.41379316 49.65517266-145.86206836 90S133.37931026 288.55172393 108.55172393 341.31034443C83.7241376 394.06896583 71.31034443 453.03448291 71.31034443 508.89655214c0 15.51724102 15.51724102 31.03448291 31.03448291 31.03448203 18.62068974 0 34.13793076-12.41379317 34.13793164-31.03448203C148.89655215 313.37931026 307.17241367 158.20689658 499.58620683 145.79310342 713.7241376 130.2758624 899.93103418 294.75862051 915.44827607 508.89655214c3.10344786 18.62068974 15.51724102 31.03448291 34.13793076 31.03448203zM319.58620683 682.68965557c-9.31034443 0-18.62068974 3.10344786-24.82758632 6.20689657l-3.10344785 3.10344786c-9.31034443 12.41379317-9.31034443 31.03448291 3.10344785 43.44827607l204.82758632 192.41379317c6.20689658 6.20689658 15.51724102 9.31034443 24.82758633 9.31034443s18.62068974-3.10344786 24.82758633-9.31034443l204.82758633-192.41379317 3.10344785-3.10344873c9.31034443-12.41379317 9.31034443-31.03448291-3.10344785-43.4482752-6.20689658-6.20689658-12.41379317-9.31034443-21.72413848-9.31034531s-18.62068974 3.10344786-24.82758632 9.31034531L558.55172393 828.55172393V316.48275898c0-18.62068974-15.51724102-31.03448291-34.13793077-31.03448291-18.62068974 0-34.13793076 12.41379317-34.13793076 31.03448291v515.17241368L341.31034443 692c-6.20689658-6.20689658-12.41379317-9.31034443-21.72413759-9.31034443z"
    ></path>
</svg>
