<svg class="icon" viewBox="0 0 1052 1024" version="1.1" xmlns="http://www.w3.org/2000/svg"
     width="280" height="280">
  <path
    d="M412.330667 56.888889c36.295111 0 71.623111 6.371556 105.984 19.114667 34.048 12.458667 65.137778 32.369778 93.354666 59.790222l248.945778 228.096V56.888889H910.222222v392.106667H512v-49.237334h313.628444L576.170667 170.666667a210.744889 210.744889 0 0 0-73.386667-48.298667 230.485333 230.485333 0 0 0-85.105778-16.241778 261.12 261.12 0 0 0-98.702222 18.631111 252.131556 252.131556 0 0 0-80.725333 51.655111 242.744889 242.744889 0 0 0-54.442667 77.937778c-13.653333 29.639111-20.423111 61.838222-20.423111 96.597334 0 24.547556 2.417778 46.535111 7.281778 65.991111 4.551111 19.114667 10.695111 36.494222 18.488889 52.110222 7.765333 15.303111 16.839111 29.326222 27.221333 42.097778 10.040889 12.430222 20.764444 24.206222 32.085333 35.384889l363.235556 357.205333L575.175111 938.666667 213.447111 581.461333a353.28 353.28 0 0 1-38.4-44.942222c-12.316444-16.583111-23.04-34.417778-32.085333-53.560889-9.102222-19.456-16.213333-40.163556-21.390222-62.179555A303.416889 303.416889 0 0 1 113.777778 351.004444c0-27.107556 3.555556-53.077333 10.695111-77.937777 7.111111-25.201778 17.180444-48.64 30.151111-70.314667a290.048 290.048 0 0 1 46.648889-59.761778 299.605333 299.605333 0 0 1 60.302222-45.909333A300.600889 300.600889 0 0 1 333.084444 67.413333c25.315556-7.025778 51.712-10.524444 79.274667-10.524444z"
    ></path>
  <path
    d="M412.330667 56.888889c36.295111 0 71.623111 6.371556 105.984 19.114667 34.048 12.458667 65.137778 32.369778 93.354666 59.790222l248.945778 228.096V56.888889H910.222222v392.106667H512v-49.237334h313.628444L576.170667 170.666667a210.744889 210.744889 0 0 0-73.386667-48.298667 230.485333 230.485333 0 0 0-85.105778-16.241778 261.12 261.12 0 0 0-98.702222 18.631111 252.131556 252.131556 0 0 0-80.725333 51.655111 242.744889 242.744889 0 0 0-54.442667 77.937778c-13.653333 29.639111-20.423111 61.838222-20.423111 96.597334 0 24.547556 2.417778 46.535111 7.281778 65.991111 4.551111 19.114667 10.695111 36.494222 18.488889 52.110222 7.765333 15.303111 16.839111 29.326222 27.221333 42.097778 10.040889 12.430222 20.764444 24.206222 32.085333 35.384889l363.235556 357.205333L575.175111 938.666667 213.447111 581.461333a353.28 353.28 0 0 1-38.4-44.942222c-12.316444-16.583111-23.04-34.417778-32.085333-53.560889-9.102222-19.456-16.213333-40.163556-21.390222-62.179555A303.416889 303.416889 0 0 1 113.777778 351.004444c0-27.107556 3.555556-53.077333 10.695111-77.937777 7.111111-25.201778 17.180444-48.64 30.151111-70.314667a290.048 290.048 0 0 1 46.648889-59.761778 299.605333 299.605333 0 0 1 60.302222-45.909333A300.600889 300.600889 0 0 1 333.084444 67.413333c25.315556-7.025778 51.712-10.524444 79.274667-10.524444z"
    ></path>
</svg>
