<svg class="icon" viewBox="0 0 1024 1024" version="1.1" xmlns="http://www.w3.org/2000/svg"
     width="300" height="300">
  <path d="M409.6 307.2l307.2 0 0 51.2-307.2 0 0-51.2Z" ></path>
  <path d="M409.6 512l153.6 0 0 51.2-153.6 0 0-51.2Z" ></path>
  <path d="M409.6 716.8l51.2 0 0 51.2-51.2 0 0-51.2Z" ></path>
  <path d="M614.4 102.4 512 102.4 512 51.2 409.6 51.2 409.6 102.4 307.2 102.4 307.2 204.8 614.4 204.8Z"
        ></path>
  <path
    d="M240.64 343.04 276.48 378.88 312.32 343.04 312.32 343.04 384 271.36 348.16 235.52 276.48 307.2 240.64 271.36 204.8 307.2Z"
    ></path>
  <path
    d="M276.48 512 240.64 476.16 204.8 512 240.64 547.84 240.64 547.84 276.48 583.68 312.32 547.84 312.32 547.84 384 476.16 348.16 440.32Z"
    ></path>
  <path
    d="M348.16 645.12 276.48 716.8 240.64 680.96 204.8 716.8 240.64 752.64 240.64 752.64 276.48 788.48 312.32 752.64 312.32 752.64 384 680.96Z"
    ></path>
  <path
    d="M742.4 558.08c97.28 0 179.2 81.92 179.2 179.2s-81.92 179.2-179.2 179.2S563.2 834.56 563.2 737.28 645.12 558.08 742.4 558.08L742.4 558.08zM742.4 506.88c-128 0-230.4 102.4-230.4 230.4s102.4 230.4 230.4 230.4 230.4-102.4 230.4-230.4S870.4 506.88 742.4 506.88L742.4 506.88 742.4 506.88z"
    ></path>
  <path d="M768 711.68 768 609.28 716.8 609.28 716.8 711.68 716.8 762.88 768 762.88 870.4 762.88 870.4 711.68Z"
        ></path>
  <path d="M768 460.8 819.2 460.8 819.2 102.4 665.6 102.4 665.6 153.6 768 153.6Z"></path>
  <path d="M460.8 870.4 153.6 870.4 153.6 153.6 256 153.6 256 102.4 102.4 102.4 102.4 921.6 460.8 921.6Z"
        ></path>
</svg>
