<svg class="icon" viewBox="0 0 1024 1024" version="1.1" xmlns="http://www.w3.org/2000/svg"
     width="200" height="200">
  <path
    d="M933.48864 411.5712 933.48864 411.5712c-4.70016-14.78656-16.75776-34.87744-47.488-46.67392-60.96896-23.42912-164.72576-61.1328-188.31872-69.68832-17.91488-23.9872-83.0976-111.13472-122.74176-162.04288-13.89568-17.88416-35.69152-28.6208-58.61888-28.7232-21.80096 0-42.13248 9.92256-55.7824 27.22304-40.2432 50.97984-107.32544 139.2896-125.63456 163.44064-21.10976 7.6032-124.63616 44.97408-187.65312 69.05856-23.32672 8.92416-39.99744 25.70752-46.9504 47.24224-7.05024 21.69856-3.36896 46.17216 10.09152 67.1232 35.98336 56.21248 97.86368 146.65216 112.03072 167.2704 0.61952 36.04992 2.57024 139.24864 5.06368 203.14112 1.0752 28.13952 10.624 49.0496 28.42624 62.18752 11.14112 8.192 25.11872 12.50816 40.46848 12.50816 8.84736 0 18.18624-1.38752 27.6992-4.11136 61.89568-17.32096 163.4304-48.07168 191.70304-56.64768 24.02816 7.54176 128.27648 40.12544 191.77472 57.9584 2.88256 0.7936 5.87776 1.19808 8.87808 1.19808 15.0528 0 28.3648-10.1376 32.35328-24.6784 4.92032-17.8688-5.51424-36.48-23.27552-41.49248-62.26944-17.50016-167.38816-50.304-198.1184-59.94496l-1.38752-0.43008c-6.3488-2.048-13.0304-2.18112-19.968-0.10752-0.96768 0.31744-127.65696 38.9632-199.89504 59.2128-3.99872 1.11104-7.89504 1.70496-10.28608 1.62304-0.5632-1.7408-1.25952-4.93056-1.4592-9.89184-2.9952-77.18912-5.18144-210.65216-5.19168-211.88096-0.128-6.71744-2.20672-13.13792-6.03648-18.69824-0.65024-0.94208-75.79136-110.19776-116.51072-173.76256-2.66752-4.1984-3.29216-7.87456-2.69824-9.6512 0.54784-1.72032 3.28192-3.69664 7.0912-5.15584 61.5936-23.54688 164.37248-60.66688 194.42176-71.48032l1.35168-0.48128c6.08256-2.19648 11.41248-6.10304 15.40608-11.37152 0.7168-0.9472 84.11136-111.10912 130.78528-170.24 1.24928-1.57696 2.42176-1.7408 3.38944-1.74592 2.11456 0.00512 4.47488 1.152 5.78048 2.8416 46.19264 59.39712 127.25248 168.10496 127.92832 169.04704 3.94752 5.28384 9.2928 9.24672 15.31392 11.41248l3.34336 1.21344c48.49152 17.59232 138.09152 50.26816 193.36704 71.53152 5.248 2.00192 7.3216 3.93728 7.5264 4.08064 0.03584 0.35328-0.1536 1.82272-1.4336 3.78368-36.12672 55.32672-99.0464 150.41024-115.16416 174.7456l-3.92192 5.89312c-3.5072 5.28384-5.43744 11.43296-5.61152 17.81248l-3.26144 131.23072c-0.22016 8.9856 3.04128 17.52576 9.1648 24.04352 6.17472 6.5536 14.52032 10.30656 23.50592 10.51648l0.29184 0.01024 0.2816-0.00512c18.18112-0.32256 33.33632-15.06304 33.7664-32.86016l2.99008-121.49248 3.5328-5.34016c21.15584-31.96928 77.34272-116.89984 110.44864-167.57248C936.54016 453.9392 939.904 431.63648 933.48864 411.5712z"
    stroke-width="40"></path>
</svg>
