<svg class="icon" viewBox="0 0 1024 1024" version="1.1" xmlns="http://www.w3.org/2000/svg"
     width="280" height="280">
  <path
    d="M935.187692 476.16c-15.753846 0-31.507692 7.876923-31.507692 31.507692 0 220.553846-173.292308 393.846154-393.846154 393.846154s-393.846154-173.292308-393.846154-393.846154c-7.876923-23.630769-15.753846-31.507692-39.384615-31.507692s-31.507692 7.876923-31.507692 31.507692c0 63.015385 15.753846 126.030769 39.384615 181.169231 23.630769 55.138462 55.138462 102.4 102.4 149.661539 39.384615 39.384615 94.523077 78.769231 149.661538 102.4 55.138462 23.630769 118.153846 39.384615 181.169231 39.384615s126.030769-15.753846 181.169231-39.384615c55.138462-23.630769 102.4-55.138462 149.661538-102.4 39.384615-39.384615 78.769231-94.523077 102.4-149.661539 23.630769-55.138462 39.384615-118.153846 39.384616-181.169231-23.630769-23.630769-39.384615-31.507692-55.138462-31.507692z"
    ></path>
  <path
    d="M305.033846 302.867692l165.415385-165.415384v527.753846c0 23.630769 15.753846 39.384615 39.384615 39.384615s39.384615-15.753846 39.384616-39.384615v-527.753846l165.415384 165.415384c7.876923 7.876923 15.753846 7.876923 23.630769 7.876923 7.876923 0 15.753846 0 23.63077-7.876923 15.753846-15.753846 15.753846-39.384615 0-55.138461l-228.43077-220.553846c-7.876923-7.876923-15.753846-15.753846-23.630769-15.753847-7.876923 0-15.753846 0-23.630769 7.876924l-228.430769 236.307692c-15.753846 15.753846-15.753846 39.384615 0 55.138461h23.630769c7.876923 0 15.753846 0 23.630769-7.876923z"
    ></path>
</svg>
